<svg width="206" height="70" viewBox="0 0 206 70" fill="none" xmlns="http://www.w3.org/2000/svg">
<path d="M51.264 26.504H39.104V2.632H50.912V5.896H42.592V12.552H50.464V15.816H42.592V23.208H51.264V26.504ZM75.0695 2.696L66.0775 26.376H62.7815L53.9815 2.696H57.7575L64.4775 21.96L71.4535 2.696H75.0695ZM90.7953 26.504H78.6353V2.632H90.4433V5.896H82.1233V12.552H89.9953V15.816H82.1233V23.208H90.7953V26.504ZM113.449 26.504H109.609L99.3688 8.616V26.504H95.9128V2.632H99.5928L109.993 20.808V2.632H113.449V26.504ZM133.339 5.864H126.843V26.376H123.355V5.864H116.891V2.696H133.339V5.864ZM55.808 60.8C54.6133 61.4613 52.7467 61.792 50.208 61.792C46.56 61.792 43.648 60.6827 41.472 58.464C39.3173 56.2027 38.24 53.2267 38.24 49.536C38.24 45.888 39.3387 42.9333 41.536 40.672C43.7333 38.4107 46.624 37.28 50.208 37.28C52.8107 37.28 54.6773 37.568 55.808 38.144L55.552 41.408C54.1013 40.832 52.32 40.544 50.208 40.544C47.6267 40.544 45.568 41.376 44.032 43.04C42.496 44.704 41.728 46.8693 41.728 49.536C41.728 52.3093 42.4747 54.4853 43.968 56.064C45.4827 57.7067 47.5627 58.528 50.208 58.528C52.448 58.528 54.2293 58.176 55.552 57.472L55.808 60.8ZM75.154 52.096L71.282 42.24L67.378 52.096H75.154ZM82.578 61.504H78.866L76.434 55.392H66.066L63.602 61.504H59.922L69.65 37.632H73.138L82.578 61.504ZM98.1003 61.376H86.0683V37.696H89.5243V58.08H98.1003V61.376ZM113.92 61.504H101.76V37.632H113.568V40.896H105.248V47.552H113.12V50.816H105.248V58.208H113.92V61.504ZM136.574 61.504H132.734L122.494 43.616V61.504H119.038V37.632H122.718L133.118 55.808V37.632H136.574V61.504ZM145.872 58.08H147.024C153.509 58.08 156.752 55.1787 156.752 49.376C156.752 43.7653 153.978 40.96 148.432 40.96H145.872V58.08ZM142.384 37.696H148.432C152.442 37.696 155.461 38.8053 157.488 41.024C159.301 43.0293 160.208 45.8453 160.208 49.472C160.208 53.568 158.906 56.6293 156.304 58.656C154.021 60.4693 150.853 61.376 146.8 61.376H142.384V37.696ZM178.498 52.096L174.626 42.24L170.722 52.096H178.498ZM185.922 61.504H182.21L179.778 55.392H169.41L166.946 61.504H163.266L172.994 37.632H176.482L185.922 61.504ZM193.252 47.488H194.884C196.292 47.488 197.401 47.232 198.212 46.72C199.193 46.144 199.684 45.2693 199.684 44.096C199.684 42.7093 199.268 41.8027 198.436 41.376C197.86 41.0987 196.687 40.96 194.916 40.96H193.252V47.488ZM205.156 61.376H201.476L198.02 53.376C197.551 52.288 197.124 51.6053 196.74 51.328C196.271 50.9653 195.524 50.784 194.5 50.784H193.252V61.376H189.828V37.696H196.1C200.793 37.696 203.14 39.8293 203.14 44.096C203.14 45.504 202.703 46.6773 201.828 47.616C200.953 48.5547 199.812 49.1627 198.404 49.44C199.599 49.6747 200.484 50.464 201.06 51.808L205.156 61.376Z" fill="#efeee9"/>
<path d="M8.56 8.432H5.312V18.688H3.568V8.432H0.336V6.848H8.56V8.432ZM17.1028 18.688H15.3908V13.568C15.3908 12.7893 15.3001 12.2293 15.1188 11.888C14.8734 11.4827 14.4468 11.28 13.8388 11.28C13.1668 11.28 12.6494 11.5573 12.2868 12.112C11.9774 12.6133 11.8228 13.2427 11.8228 14V18.688H10.1108V5.952H11.8228V10.768C12.0361 10.416 12.3454 10.1493 12.7508 9.968C13.1454 9.776 13.5668 9.68 14.0148 9.68C15.1348 9.68 15.9401 10.0213 16.4308 10.704C16.8788 11.312 17.1028 12.2453 17.1028 13.504V18.688ZM26.4219 14.992H21.0299C21.0619 15.76 21.2699 16.3573 21.6539 16.784C22.0485 17.2427 22.5925 17.472 23.2859 17.472C24.2459 17.472 25.0939 17.264 25.8299 16.848V18.464C24.9765 18.784 24.1125 18.944 23.2379 18.944C21.8619 18.944 20.8379 18.5067 20.1659 17.632C19.5792 16.8533 19.2859 15.7653 19.2859 14.368C19.2859 13.024 19.6112 11.9307 20.2619 11.088C20.9125 10.2453 21.7872 9.824 22.8859 9.824C24.1125 9.824 25.0299 10.2613 25.6379 11.136C26.1605 11.8827 26.4219 12.8693 26.4219 14.096V14.992ZM24.6779 13.472C24.6779 12.8747 24.5232 12.3733 24.2139 11.968C23.8939 11.5413 23.4725 11.328 22.9499 11.328C22.4165 11.328 21.9632 11.5467 21.5899 11.984C21.2165 12.4213 21.0299 12.9173 21.0299 13.472H24.6779Z" fill="#efeee9"/>
</svg>
